<?xml version="1.0" encoding="UTF-8"?>
<svg id="_图层_2" data-name="图层 2" xmlns="http://www.w3.org/2000/svg" xmlns:xlink="http://www.w3.org/1999/xlink" viewBox="0 0 215.7 215.7">
  <defs>
    <style>
      .cls-1 {
        fill: url(#_未命名的渐变_51-2);
      }

      .cls-2 {
        opacity: .8;
      }

      .cls-3 {
        fill: url(#_未命名的渐变_51);
      }
    </style>
    <linearGradient id="_未命名的渐变_51" data-name="未命名的渐变 51" x1="398.62" y1="569.85" x2="510.21" y2="569.85" gradientTransform="translate(562.27 677.7) rotate(-180)" gradientUnits="userSpaceOnUse">
      <stop offset="0" stop-color="#000"/>
      <stop offset="1" stop-color="#000" stop-opacity=".03"/>
    </linearGradient>
    <linearGradient id="_未命名的渐变_51-2" data-name="未命名的渐变 51" x1="439.02" y1="195.57" x2="550.61" y2="195.57" gradientTransform="translate(-87.71 602.67) rotate(-90)" xlink:href="#_未命名的渐变_51"/>
  </defs>
  <g id="_图层_1-2" data-name="图层 1">
    <g>
      <g class="cls-2">
        <path d="M107.82,210.22c-26.86,0-52.19-10.31-71.46-29.1-19.57-19.1-30.53-44.67-30.87-72.01C4.8,52.66,50.16,6.18,106.6,5.49c.42,0,.85,0,1.27,0,55.87,0,101.66,45.09,102.34,101.11.33,27.34-10,53.18-29.09,72.75-19.1,19.57-44.67,30.53-72.01,30.87-.43,0-.86,0-1.29,0ZM107.87,16.45c-.38,0-.76,0-1.13,0-50.39.62-90.89,42.12-90.27,92.51.3,24.41,10.09,47.25,27.56,64.3,17.47,17.05,40.52,26.27,64.95,25.98,24.41-.3,47.25-10.08,64.3-27.56,17.05-17.47,26.28-40.54,25.98-64.95-.61-50.02-41.49-90.28-91.38-90.28Z"/>
      </g>
      <path class="cls-3" d="M107.85,215.7c-31.81,0-55.79-46.37-55.79-107.85S76.04,0,107.85,0s55.79,46.37,55.79,107.85-23.99,107.85-55.79,107.85ZM107.85,21.94c-14.14,0-33.86,32.69-33.86,85.92s19.72,85.92,33.86,85.92,33.86-32.69,33.86-85.92S121.99,21.94,107.85,21.94Z"/>
      <path class="cls-1" d="M107.85,163.65C46.37,163.65,0,139.66,0,107.85s46.37-55.79,107.85-55.79,107.85,23.99,107.85,55.79-46.37,55.79-107.85,55.79ZM107.85,73.99c-53.23,0-85.92,19.72-85.92,33.86s32.68,33.86,85.92,33.86,85.91-19.72,85.91-33.86-32.68-33.86-85.91-33.86Z"/>
    </g>
  </g>
</svg>