<?xml version="1.0" encoding="UTF-8"?>
<svg id="_图层_2" xmlns="http://www.w3.org/2000/svg" xmlns:xlink="http://www.w3.org/1999/xlink" version="1.1" viewBox="0 0 215.7 215.7">
  <!-- Generator: Adobe Illustrator 29.4.0, SVG Export Plug-In . SVG Version: 2.1.0 Build 152)  -->
  <defs>
    <style>
      .st0 {
        fill: #003c9e;
      }

      .st1 {
        opacity: .8;
      }

      .st2 {
        fill: url(#_未命名的渐变_42);
      }

      .st3 {
        fill: url(#_未命名的渐变_45);
      }
    </style>
    <linearGradient id="_未命名的渐变_45" data-name="未命名的渐变 45" x1="20.63" y1="272.04" x2="132.21" y2="272.04" gradientTransform="translate(184.27 -164.19) rotate(-180) scale(1 -1)" gradientUnits="userSpaceOnUse">
      <stop offset="0" stop-color="#00327f"/>
      <stop offset="1" stop-color="#00327f" stop-opacity=".03"/>
    </linearGradient>
    <linearGradient id="_未命名的渐变_42" data-name="未命名的渐变 42" x1="-21.38" y1="290.47" x2="90.2" y2="290.47" gradientTransform="translate(398.34 142.26) rotate(-90) scale(1 -1)" gradientUnits="userSpaceOnUse">
      <stop offset="0" stop-color="#00327f"/>
      <stop offset="1" stop-color="#00327f" stop-opacity=".03"/>
    </linearGradient>
  </defs>
  <g id="_图层_1-2">
    <g>
      <g class="st1">
        <path class="st0" d="M107.82,210.22c-26.86,0-52.19-10.31-71.46-29.1-19.57-19.1-30.53-44.67-30.87-72.01C4.8,52.66,50.16,6.18,106.6,5.49h1.27c55.87,0,101.66,45.09,102.34,101.11.33,27.34-10,53.18-29.09,72.75-19.1,19.57-44.67,30.53-72.01,30.87h-1.29ZM107.87,16.45h-1.13c-50.39.62-90.89,42.12-90.27,92.51.3,24.41,10.09,47.25,27.56,64.3,17.47,17.05,40.52,26.27,64.95,25.98,24.41-.3,47.25-10.08,64.3-27.56,17.05-17.47,26.28-40.54,25.98-64.95-.61-50.02-41.49-90.28-91.38-90.28h0Z"/>
      </g>
      <path class="st3" d="M107.85,215.7c-31.81,0-55.79-46.37-55.79-107.85S76.04,0,107.85,0s55.79,46.37,55.79,107.85-23.99,107.85-55.79,107.85ZM107.85,21.94c-14.14,0-33.86,32.69-33.86,85.92s19.72,85.92,33.86,85.92,33.86-32.69,33.86-85.92S121.99,21.94,107.85,21.94Z"/>
      <path class="st2" d="M.02,107.85C.02,76.04,46.39,52.06,107.87,52.06s107.85,23.98,107.85,55.79-46.37,55.79-107.85,55.79S.02,139.65.02,107.85ZM193.78,107.85c0-14.14-32.69-33.86-85.92-33.86S21.94,93.71,21.94,107.85s32.69,33.86,85.92,33.86,85.92-19.72,85.92-33.86Z"/>
    </g>
  </g>
</svg>