<?xml version="1.0" encoding="UTF-8"?>
<svg id="_图层_2" xmlns="http://www.w3.org/2000/svg" xmlns:xlink="http://www.w3.org/1999/xlink" version="1.1" viewBox="0 0 215.7 215.7">
  <!-- Generator: Adobe Illustrator 29.4.0, SVG Export Plug-In . SVG Version: 2.1.0 Build 152)  -->
  <defs>
    <style>
      .st0 {
        fill: url(#_未命名的渐变_2);
      }

      .st1 {
        fill: url(#_未命名的渐变);
      }

      .st2 {
        fill: #fff;
      }

      .st3 {
        opacity: .8;
      }
    </style>
    <linearGradient id="_未命名的渐变" data-name="未命名的渐变" x1="20.63" y1="272.04" x2="132.21" y2="272.04" gradientTransform="translate(184.27 -164.19) rotate(-180) scale(1 -1)" gradientUnits="userSpaceOnUse">
      <stop offset="0" stop-color="#000"/>
      <stop offset="1" stop-color="#000" stop-opacity=".03"/>
    </linearGradient>
    <linearGradient id="_未命名的渐变_2" data-name="未命名的渐变 2" x1="-62.98" y1="144.33" x2="48.61" y2="144.33" gradientTransform="translate(252.18 100.67) rotate(-90) scale(1 -1)" gradientUnits="userSpaceOnUse">
      <stop offset="0" stop-color="#000"/>
      <stop offset="1" stop-color="#000" stop-opacity=".03"/>
    </linearGradient>
  </defs>
  <circle class="st2" cx="107.87" cy="107.85" r="102.37"/>
  <g id="_图层_1-2">
    <g>
      <g class="st3">
        <path d="M107.82,210.22c-26.86,0-52.19-10.31-71.46-29.1-19.57-19.1-30.53-44.67-30.87-72.01C4.8,52.66,50.16,6.18,106.6,5.49h1.27c55.87,0,101.66,45.09,102.34,101.11.33,27.34-10,53.18-29.09,72.75-19.1,19.57-44.67,30.53-72.01,30.87h-1.29ZM107.87,16.45h-1.13c-50.39.62-90.89,42.12-90.27,92.51.3,24.41,10.09,47.25,27.56,64.3,17.47,17.05,40.52,26.27,64.95,25.98,24.41-.3,47.25-10.08,64.3-27.56,17.05-17.47,26.28-40.54,25.98-64.95-.61-50.02-41.49-90.28-91.38-90.28h0Z"/>
      </g>
      <path class="st1" d="M107.85,215.7c-31.81,0-55.79-46.37-55.79-107.85S76.04,0,107.85,0s55.79,46.37,55.79,107.85-23.99,107.85-55.79,107.85ZM107.85,21.94c-14.14,0-33.86,32.69-33.86,85.92s19.72,85.92,33.86,85.92,33.86-32.69,33.86-85.92S121.99,21.94,107.85,21.94Z"/>
      <path class="st0" d="M107.85,163.65C46.37,163.65,0,139.66,0,107.85s46.37-55.79,107.85-55.79,107.85,23.99,107.85,55.79-46.37,55.79-107.85,55.79h0ZM107.85,73.99c-53.23,0-85.92,19.72-85.92,33.86s32.68,33.86,85.92,33.86,85.91-19.72,85.91-33.86-32.68-33.86-85.91-33.86Z"/>
    </g>
  </g>
</svg>